<svg xmlns="http://www.w3.org/2000/svg" width="1200" height="720" style="font-family: ui-monospace, 'Menlo', monospace; background: #f8f9fa;">
<text x="600" y="36" text-anchor="middle" font-size="16" font-weight="bold" fill="#1a1a2e" letter-spacing="0.3">autoresearch journey — 199 experiments across 4 libraries</text>
<rect x="75.0" y="58" width="23.9" height="594" fill="#e6f7ef" opacity="0.85"/>
<rect x="101.6" y="58" width="114.3" height="594" fill="#e8edf8" opacity="0.85"/>
<rect x="218.6" y="58" width="61.2" height="594" fill="#fdf4e3" opacity="0.85"/>
<rect x="282.4" y="58" width="848.3" height="594" fill="#f3eefb" opacity="0.85"/>
<text x="87.0" y="52" text-anchor="middle" font-size="10" fill="#2d7a4f" font-style="italic" transform="rotate(-30 87.0 52)">atoms</text>
<text x="158.8" y="50" text-anchor="middle" font-size="12" fill="#3b5bab" font-weight="600" font-style="italic">engine</text>
<text x="249.2" y="50" text-anchor="middle" font-size="12" fill="#9a6200" font-weight="600" font-style="italic">lang</text>
<text x="706.5" y="50" text-anchor="middle" font-size="12" fill="#6d28d9" font-weight="600" font-style="italic">loops</text>
<line x1="101.6" y1="58" x2="101.6" y2="652" stroke="#999" stroke-width="1.2" stroke-dasharray="5,3"/>
<line x1="218.6" y1="58" x2="218.6" y2="652" stroke="#999" stroke-width="1.2" stroke-dasharray="5,3"/>
<line x1="282.4" y1="58" x2="282.4" y2="652" stroke="#999" stroke-width="1.2" stroke-dasharray="5,3"/>
<line x1="75" y1="652.0" x2="1128" y2="652.0" stroke="#d0d0d0" stroke-width="1" stroke-dasharray="4,3"/>
<text x="67" y="656.0" text-anchor="end" font-size="11" fill="#555">50%</text>
<line x1="75" y1="537.8" x2="1128" y2="537.8" stroke="#d0d0d0" stroke-width="1" stroke-dasharray="4,3"/>
<text x="67" y="541.8" text-anchor="end" font-size="11" fill="#555">60%</text>
<line x1="75" y1="423.5" x2="1128" y2="423.5" stroke="#d0d0d0" stroke-width="1" stroke-dasharray="4,3"/>
<text x="67" y="427.5" text-anchor="end" font-size="11" fill="#555">70%</text>
<line x1="75" y1="309.3" x2="1128" y2="309.3" stroke="#d0d0d0" stroke-width="1" stroke-dasharray="4,3"/>
<text x="67" y="313.3" text-anchor="end" font-size="11" fill="#555">80%</text>
<line x1="75" y1="195.1" x2="1128" y2="195.1" stroke="#d0d0d0" stroke-width="1" stroke-dasharray="4,3"/>
<text x="67" y="199.1" text-anchor="end" font-size="11" fill="#555">90%</text>
<line x1="75" y1="80.8" x2="1128" y2="80.8" stroke="#d0d0d0" stroke-width="1" stroke-dasharray="4,3"/>
<text x="67" y="84.8" text-anchor="end" font-size="11" fill="#555">100%</text>
<line x1="75" y1="652.0" x2="1128" y2="652.0" stroke="#e0d8f0" stroke-width="0.8" stroke-dasharray="2,5"/>
<text x="1136" y="656.0" font-size="11" fill="#9b6fd0">0</text>
<line x1="75" y1="528.2" x2="1128" y2="528.2" stroke="#e0d8f0" stroke-width="0.8" stroke-dasharray="2,5"/>
<text x="1136" y="532.2" font-size="11" fill="#9b6fd0">5</text>
<line x1="75" y1="404.5" x2="1128" y2="404.5" stroke="#e0d8f0" stroke-width="0.8" stroke-dasharray="2,5"/>
<text x="1136" y="408.5" font-size="11" fill="#9b6fd0">10</text>
<line x1="75" y1="280.8" x2="1128" y2="280.8" stroke="#e0d8f0" stroke-width="0.8" stroke-dasharray="2,5"/>
<text x="1136" y="284.8" font-size="11" fill="#9b6fd0">15</text>
<line x1="75" y1="157.0" x2="1128" y2="157.0" stroke="#e0d8f0" stroke-width="0.8" stroke-dasharray="2,5"/>
<text x="1136" y="161.0" font-size="11" fill="#9b6fd0">20</text>
<rect x="75" y="58" width="1053" height="594" fill="none" stroke="#aaa" stroke-width="1.5"/>
<polygon points="75.0,200.8 80.3,172.2 85.6,140.2 91.0,124.3 96.3,102.6 101.6,270.5 106.9,256.8 112.2,248.8 117.5,237.3 122.9,233.9 128.2,217.9 133.5,207.6 138.8,204.2 144.1,203.1 154.8,203.1 160.1,203.1 165.4,192.8 170.7,188.2 176.0,182.5 181.4,179.1 186.7,176.8 192.0,176.8 197.3,173.4 202.6,169.9 208.0,166.5 213.3,166.5 218.6,230.5 223.9,213.4 229.2,198.5 234.5,187.1 239.9,174.5 245.2,157.4 250.5,141.4 255.8,135.7 261.1,110.5 266.5,104.8 271.8,101.4 277.1,99.1 282.4,574.3 287.7,557.2 293.0,525.2 298.4,519.5 303.7,510.4 309.0,496.6 314.3,496.6 319.6,488.6 325.0,484.1 330.3,481.8 335.6,480.7 340.9,477.2 346.2,473.8 351.5,470.4 356.9,458.9 362.2,456.7 367.5,456.7 372.8,456.7 383.5,453.2 388.8,449.8 394.1,449.8 399.4,446.4 404.7,446.4 410.0,445.2 415.4,445.2 420.7,443.0 426.0,441.8 431.3,440.7 436.6,439.5 442.0,437.2 447.3,436.1 452.6,432.7 457.9,432.7 463.2,431.5 468.5,431.5 473.9,431.5 479.2,428.1 484.5,428.1 489.8,427.0 495.1,424.7 500.5,415.5 505.8,396.1 511.1,371.0 516.4,365.3 521.7,364.1 527.0,361.9 537.7,359.6 543.0,353.9 548.3,353.9 553.6,350.4 559.0,350.4 564.3,345.9 569.6,344.7 574.9,343.6 580.2,336.7 585.5,328.7 590.9,328.7 596.2,328.7 606.8,326.4 612.1,326.4 617.5,325.3 622.8,325.3 628.1,324.2 633.4,321.9 638.7,321.9 644.0,320.7 649.4,320.7 654.7,318.4 660.0,318.4 665.3,317.3 670.6,317.3 676.0,316.2 681.3,316.2 686.6,315.0 691.9,315.0 707.9,313.9 713.2,312.7 718.5,312.7 723.8,312.7 729.1,312.7 739.8,311.6 745.1,311.6 750.4,309.3 755.7,309.3 761.0,308.2 766.4,308.2 771.7,307.0 782.3,307.0 787.6,305.9 793.0,304.7 798.3,304.7 803.6,303.6 808.9,303.6 814.2,302.5 819.5,302.5 830.2,302.5 840.8,301.3 846.1,301.3 851.5,300.2 856.8,300.2 862.1,299.0 867.4,299.0 878.0,299.0 883.4,299.0 888.7,157.4 894.0,157.4 899.3,154.0 904.6,154.0 910.0,152.8 915.3,151.7 920.6,150.5 925.9,148.2 931.2,141.4 936.5,134.5 941.9,132.2 947.2,132.2 963.1,132.2 968.5,132.2 984.4,132.2 989.7,131.1 1000.4,131.1 1016.3,130.0 1021.6,130.0 1032.3,127.7 1037.6,125.4 1042.9,125.4 1048.2,124.3 1053.5,124.3 1058.9,124.3 1064.2,124.3 1074.8,118.5 1085.5,116.3 1090.8,115.1 1096.1,112.8 1101.4,111.7 1106.7,107.1 1112.0,107.1 1117.4,106.0 1122.7,104.8 1128.0,104.8 1128.0,652.0 1122.7,652.0 1117.4,652.0 1112.0,652.0 1106.7,652.0 1101.4,652.0 1096.1,652.0 1090.8,652.0 1085.5,652.0 1074.8,652.0 1064.2,652.0 1058.9,652.0 1053.5,652.0 1048.2,652.0 1042.9,652.0 1037.6,652.0 1032.3,652.0 1021.6,652.0 1016.3,652.0 1000.4,652.0 989.7,652.0 984.4,652.0 968.5,652.0 963.1,652.0 947.2,652.0 941.9,652.0 936.5,652.0 931.2,652.0 925.9,652.0 920.6,652.0 915.3,652.0 910.0,652.0 904.6,652.0 899.3,652.0 894.0,652.0 888.7,652.0 883.4,652.0 878.0,652.0 867.4,652.0 862.1,652.0 856.8,652.0 851.5,652.0 846.1,652.0 840.8,652.0 830.2,652.0 819.5,652.0 814.2,652.0 808.9,652.0 803.6,652.0 798.3,652.0 793.0,652.0 787.6,652.0 782.3,652.0 771.7,652.0 766.4,652.0 761.0,652.0 755.7,652.0 750.4,652.0 745.1,652.0 739.8,652.0 729.1,652.0 723.8,652.0 718.5,652.0 713.2,652.0 707.9,652.0 691.9,652.0 686.6,652.0 681.3,652.0 676.0,652.0 670.6,652.0 665.3,652.0 660.0,652.0 654.7,652.0 649.4,652.0 644.0,652.0 638.7,652.0 633.4,652.0 628.1,652.0 622.8,652.0 617.5,652.0 612.1,652.0 606.8,652.0 596.2,652.0 590.9,652.0 585.5,652.0 580.2,652.0 574.9,652.0 569.6,652.0 564.3,652.0 559.0,652.0 553.6,652.0 548.3,652.0 543.0,652.0 537.7,652.0 527.0,652.0 521.7,652.0 516.4,652.0 511.1,652.0 505.8,652.0 500.5,652.0 495.1,652.0 489.8,652.0 484.5,652.0 479.2,652.0 473.9,652.0 468.5,652.0 463.2,652.0 457.9,652.0 452.6,652.0 447.3,652.0 442.0,652.0 436.6,652.0 431.3,652.0 426.0,652.0 420.7,652.0 415.4,652.0 410.0,652.0 404.7,652.0 399.4,652.0 394.1,652.0 388.8,652.0 383.5,652.0 372.8,652.0 367.5,652.0 362.2,652.0 356.9,652.0 351.5,652.0 346.2,652.0 340.9,652.0 335.6,652.0 330.3,652.0 325.0,652.0 319.6,652.0 314.3,652.0 309.0,652.0 303.7,652.0 298.4,652.0 293.0,652.0 287.7,652.0 282.4,652.0 277.1,652.0 271.8,652.0 266.5,652.0 261.1,652.0 255.8,652.0 250.5,652.0 245.2,652.0 239.9,652.0 234.5,652.0 229.2,652.0 223.9,652.0 218.6,652.0 213.3,652.0 208.0,652.0 202.6,652.0 197.3,652.0 192.0,652.0 186.7,652.0 181.4,652.0 176.0,652.0 170.7,652.0 165.4,652.0 160.1,652.0 154.8,652.0 144.1,652.0 138.8,652.0 133.5,652.0 128.2,652.0 122.9,652.0 117.5,652.0 112.2,652.0 106.9,652.0 101.6,652.0 96.3,652.0 91.0,652.0 85.6,652.0 80.3,652.0 75.0,652.0" fill="#22c55e" opacity="0.12"/>
<path d="M75.0,200.8 L80.3,172.2 L85.6,140.2 L91.0,124.3 L96.3,102.6 L101.6,270.5 L106.9,256.8 L112.2,248.8 L117.5,237.3 L122.9,233.9 L128.2,217.9 L133.5,207.6 L138.8,204.2 L144.1,203.1 L154.8,203.1 L160.1,203.1 L165.4,192.8 L170.7,188.2 L176.0,182.5 L181.4,179.1 L186.7,176.8 L192.0,176.8 L197.3,173.4 L202.6,169.9 L208.0,166.5 L213.3,166.5 L218.6,230.5 L223.9,213.4 L229.2,198.5 L234.5,187.1 L239.9,174.5 L245.2,157.4 L250.5,141.4 L255.8,135.7 L261.1,110.5 L266.5,104.8 L271.8,101.4 L277.1,99.1 L282.4,574.3 L287.7,557.2 L293.0,525.2 L298.4,519.5 L303.7,510.4 L309.0,496.6 L314.3,496.6 L319.6,488.6 L325.0,484.1 L330.3,481.8 L335.6,480.7 L340.9,477.2 L346.2,473.8 L351.5,470.4 L356.9,458.9 L362.2,456.7 L367.5,456.7 L372.8,456.7 L383.5,453.2 L388.8,449.8 L394.1,449.8 L399.4,446.4 L404.7,446.4 L410.0,445.2 L415.4,445.2 L420.7,443.0 L426.0,441.8 L431.3,440.7 L436.6,439.5 L442.0,437.2 L447.3,436.1 L452.6,432.7 L457.9,432.7 L463.2,431.5 L468.5,431.5 L473.9,431.5 L479.2,428.1 L484.5,428.1 L489.8,427.0 L495.1,424.7 L500.5,415.5 L505.8,396.1 L511.1,371.0 L516.4,365.3 L521.7,364.1 L527.0,361.9 L537.7,359.6 L543.0,353.9 L548.3,353.9 L553.6,350.4 L559.0,350.4 L564.3,345.9 L569.6,344.7 L574.9,343.6 L580.2,336.7 L585.5,328.7 L590.9,328.7 L596.2,328.7 L606.8,326.4 L612.1,326.4 L617.5,325.3 L622.8,325.3 L628.1,324.2 L633.4,321.9 L638.7,321.9 L644.0,320.7 L649.4,320.7 L654.7,318.4 L660.0,318.4 L665.3,317.3 L670.6,317.3 L676.0,316.2 L681.3,316.2 L686.6,315.0 L691.9,315.0 L707.9,313.9 L713.2,312.7 L718.5,312.7 L723.8,312.7 L729.1,312.7 L739.8,311.6 L745.1,311.6 L750.4,309.3 L755.7,309.3 L761.0,308.2 L766.4,308.2 L771.7,307.0 L782.3,307.0 L787.6,305.9 L793.0,304.7 L798.3,304.7 L803.6,303.6 L808.9,303.6 L814.2,302.5 L819.5,302.5 L830.2,302.5 L840.8,301.3 L846.1,301.3 L851.5,300.2 L856.8,300.2 L862.1,299.0 L867.4,299.0 L878.0,299.0 L883.4,299.0 L888.7,157.4 L894.0,157.4 L899.3,154.0 L904.6,154.0 L910.0,152.8 L915.3,151.7 L920.6,150.5 L925.9,148.2 L931.2,141.4 L936.5,134.5 L941.9,132.2 L947.2,132.2 L963.1,132.2 L968.5,132.2 L984.4,132.2 L989.7,131.1 L1000.4,131.1 L1016.3,130.0 L1021.6,130.0 L1032.3,127.7 L1037.6,125.4 L1042.9,125.4 L1048.2,124.3 L1053.5,124.3 L1058.9,124.3 L1064.2,124.3 L1074.8,118.5 L1085.5,116.3 L1090.8,115.1 L1096.1,112.8 L1101.4,111.7 L1106.7,107.1 L1112.0,107.1 L1117.4,106.0 L1122.7,104.8 L1128.0,104.8" fill="none" stroke="#16a34a" stroke-width="2.5" stroke-linejoin="round"/>
<path d="M75.0,560.4 L80.3,464.1 L85.6,580.2 L91.0,558.0 L96.3,577.0 L101.6,479.5 L106.9,506.5 L112.2,428.8 L117.5,447.6 L122.9,503.7 L128.2,495.3 L133.5,487.7 L138.8,515.6 L144.1,500.5 L154.8,391.1 L160.1,484.9 L165.4,363.4 L170.7,373.6 L176.0,396.8 L181.4,305.0 L186.7,255.8 L192.0,272.1 L197.3,310.0 L202.6,257.0 L208.0,198.3 L213.3,121.6 L218.6,572.6 L223.9,572.3 L229.2,409.4 L234.5,489.9 L239.9,539.4 L245.2,554.7 L250.5,594.6 L255.8,579.0 L261.1,603.7 L266.5,604.5 L271.8,605.5 L277.1,599.8 L282.4,539.9 L287.7,546.8 L293.0,533.0 L298.4,522.6 L303.7,526.8 L309.0,512.7 L314.3,524.8 L319.6,534.9 L325.0,529.0 L330.3,528.0 L335.6,535.7 L340.9,516.6 L346.2,512.2 L351.5,518.1 L356.9,510.2 L362.2,513.2 L367.5,527.5 L372.8,533.0 L383.5,511.7 L388.8,527.8 L394.1,515.1 L399.4,528.5 L404.7,569.6 L410.0,562.2 L415.4,568.1 L420.7,574.3 L426.0,575.0 L431.3,587.9 L436.6,575.0 L442.0,567.6 L447.3,586.2 L452.6,565.4 L457.9,574.8 L463.2,573.5 L468.5,572.1 L473.9,573.8 L479.2,574.0 L484.5,586.7 L489.8,568.6 L495.1,567.6 L500.5,569.3 L505.8,582.7 L511.1,590.4 L516.4,566.6 L521.7,568.8 L527.0,579.5 L537.7,577.8 L543.0,566.6 L548.3,564.6 L553.6,562.7 L559.0,561.2 L564.3,560.7 L569.6,578.0 L574.9,561.9 L580.2,574.0 L585.5,558.9 L590.9,557.0 L596.2,572.8 L606.8,557.0 L612.1,559.4 L617.5,560.7 L622.8,550.0 L628.1,570.3 L633.4,572.6 L638.7,572.8 L644.0,558.0 L649.4,566.1 L654.7,555.5 L660.0,568.8 L665.3,554.7 L670.6,552.8 L676.0,551.5 L681.3,567.9 L686.6,550.0 L691.9,566.1 L707.9,562.9 L713.2,546.3 L718.5,565.6 L723.8,547.6 L729.1,548.8 L739.8,549.3 L745.1,547.8 L750.4,540.1 L755.7,549.0 L761.0,559.7 L766.4,547.6 L771.7,545.6 L782.3,563.6 L787.6,544.8 L793.0,534.2 L798.3,540.1 L803.6,542.1 L808.9,542.6 L814.2,543.8 L819.5,562.4 L830.2,561.4 L840.8,562.2 L846.1,560.9 L851.5,540.6 L856.8,541.1 L862.1,561.2 L867.4,542.9 L878.0,541.9 L883.4,553.7 L888.7,487.2 L894.0,522.8 L899.3,405.5 L904.6,497.8 L910.0,514.9 L915.3,474.0 L920.6,486.7 L925.9,508.7 L931.2,483.7 L936.5,493.8 L941.9,487.7 L947.2,454.5 L963.1,501.3 L968.5,481.2 L984.4,510.9 L989.7,511.9 L1000.4,508.7 L1016.3,478.5 L1021.6,487.4 L1032.3,478.8 L1037.6,486.7 L1042.9,509.7 L1048.2,485.7 L1053.5,487.9 L1058.9,510.7 L1064.2,473.1 L1074.8,465.4 L1085.5,427.8 L1090.8,535.7 L1096.1,563.9 L1101.4,563.4 L1106.7,502.5 L1112.0,543.1 L1117.4,556.0 L1122.7,563.6 L1128.0,563.6" fill="none" stroke="#9b6fd0" stroke-width="1.5" stroke-dasharray="6,3" opacity="0.75"/>
<circle cx="75.0" cy="200.8" r="4.0" fill="#16a34a" opacity="0.85"/>
<circle cx="80.3" cy="172.2" r="4.0" fill="#16a34a" opacity="0.85"/>
<circle cx="85.6" cy="140.2" r="4.0" fill="#16a34a" opacity="0.85"/>
<circle cx="91.0" cy="124.3" r="4.0" fill="#16a34a" opacity="0.85"/>
<circle cx="96.3" cy="102.6" r="4.0" fill="#16a34a" opacity="0.85"/>
<circle cx="101.6" cy="270.5" r="4.0" fill="#16a34a" opacity="0.85"/>
<circle cx="106.9" cy="256.8" r="4.0" fill="#16a34a" opacity="0.85"/>
<circle cx="112.2" cy="248.8" r="4.0" fill="#16a34a" opacity="0.85"/>
<circle cx="117.5" cy="237.3" r="4.0" fill="#16a34a" opacity="0.85"/>
<circle cx="122.9" cy="233.9" r="4.0" fill="#16a34a" opacity="0.85"/>
<circle cx="128.2" cy="217.9" r="4.0" fill="#16a34a" opacity="0.85"/>
<circle cx="133.5" cy="207.6" r="4.0" fill="#16a34a" opacity="0.85"/>
<circle cx="138.8" cy="204.2" r="4.0" fill="#16a34a" opacity="0.85"/>
<circle cx="144.1" cy="203.1" r="4.0" fill="#16a34a" opacity="0.85"/>
<circle cx="149.5" cy="203.1" r="3.5" fill="#f97316" opacity="0.75"/>
<circle cx="154.8" cy="203.1" r="4.0" fill="#16a34a" opacity="0.85"/>
<circle cx="160.1" cy="203.1" r="4.0" fill="#16a34a" opacity="0.85"/>
<circle cx="165.4" cy="192.8" r="4.0" fill="#16a34a" opacity="0.85"/>
<circle cx="170.7" cy="188.2" r="4.0" fill="#16a34a" opacity="0.85"/>
<circle cx="176.0" cy="182.5" r="4.0" fill="#16a34a" opacity="0.85"/>
<circle cx="181.4" cy="179.1" r="4.0" fill="#16a34a" opacity="0.85"/>
<circle cx="186.7" cy="176.8" r="4.0" fill="#16a34a" opacity="0.85"/>
<circle cx="192.0" cy="176.8" r="4.0" fill="#16a34a" opacity="0.85"/>
<circle cx="197.3" cy="173.4" r="4.0" fill="#16a34a" opacity="0.85"/>
<circle cx="202.6" cy="169.9" r="4.0" fill="#16a34a" opacity="0.85"/>
<circle cx="208.0" cy="166.5" r="4.0" fill="#16a34a" opacity="0.85"/>
<circle cx="213.3" cy="166.5" r="4.0" fill="#16a34a" opacity="0.85"/>
<circle cx="218.6" cy="230.5" r="4.0" fill="#16a34a" opacity="0.85"/>
<circle cx="223.9" cy="213.4" r="4.0" fill="#16a34a" opacity="0.85"/>
<circle cx="229.2" cy="198.5" r="4.0" fill="#16a34a" opacity="0.85"/>
<circle cx="234.5" cy="187.1" r="4.0" fill="#16a34a" opacity="0.85"/>
<circle cx="239.9" cy="174.5" r="4.0" fill="#16a34a" opacity="0.85"/>
<circle cx="245.2" cy="157.4" r="4.0" fill="#16a34a" opacity="0.85"/>
<circle cx="250.5" cy="141.4" r="4.0" fill="#16a34a" opacity="0.85"/>
<circle cx="255.8" cy="135.7" r="4.0" fill="#16a34a" opacity="0.85"/>
<circle cx="261.1" cy="110.5" r="4.0" fill="#16a34a" opacity="0.85"/>
<circle cx="266.5" cy="104.8" r="4.0" fill="#16a34a" opacity="0.85"/>
<circle cx="271.8" cy="101.4" r="4.0" fill="#16a34a" opacity="0.85"/>
<circle cx="277.1" cy="99.1" r="4.0" fill="#16a34a" opacity="0.85"/>
<circle cx="282.4" cy="574.3" r="4.0" fill="#16a34a" opacity="0.85"/>
<circle cx="287.7" cy="557.2" r="4.0" fill="#16a34a" opacity="0.85"/>
<circle cx="293.0" cy="525.2" r="4.0" fill="#16a34a" opacity="0.85"/>
<circle cx="298.4" cy="519.5" r="4.0" fill="#16a34a" opacity="0.85"/>
<circle cx="303.7" cy="510.4" r="4.0" fill="#16a34a" opacity="0.85"/>
<circle cx="309.0" cy="496.6" r="4.0" fill="#16a34a" opacity="0.85"/>
<circle cx="314.3" cy="496.6" r="4.0" fill="#16a34a" opacity="0.85"/>
<circle cx="319.6" cy="488.6" r="4.0" fill="#16a34a" opacity="0.85"/>
<circle cx="325.0" cy="484.1" r="4.0" fill="#16a34a" opacity="0.85"/>
<circle cx="330.3" cy="481.8" r="4.0" fill="#16a34a" opacity="0.85"/>
<circle cx="335.6" cy="480.7" r="4.0" fill="#16a34a" opacity="0.85"/>
<circle cx="340.9" cy="477.2" r="4.0" fill="#16a34a" opacity="0.85"/>
<circle cx="346.2" cy="473.8" r="4.0" fill="#16a34a" opacity="0.85"/>
<circle cx="351.5" cy="470.4" r="4.0" fill="#16a34a" opacity="0.85"/>
<circle cx="356.9" cy="458.9" r="4.0" fill="#16a34a" opacity="0.85"/>
<circle cx="362.2" cy="456.7" r="4.0" fill="#16a34a" opacity="0.85"/>
<circle cx="367.5" cy="456.7" r="4.0" fill="#16a34a" opacity="0.85"/>
<circle cx="372.8" cy="456.7" r="4.0" fill="#16a34a" opacity="0.85"/>
<circle cx="378.1" cy="456.7" r="3.5" fill="#f97316" opacity="0.75"/>
<circle cx="383.5" cy="453.2" r="4.0" fill="#16a34a" opacity="0.85"/>
<circle cx="388.8" cy="449.8" r="4.0" fill="#16a34a" opacity="0.85"/>
<circle cx="394.1" cy="449.8" r="4.0" fill="#16a34a" opacity="0.85"/>
<circle cx="399.4" cy="446.4" r="4.0" fill="#16a34a" opacity="0.85"/>
<circle cx="404.7" cy="446.4" r="4.0" fill="#16a34a" opacity="0.85"/>
<circle cx="410.0" cy="445.2" r="4.0" fill="#16a34a" opacity="0.85"/>
<circle cx="415.4" cy="445.2" r="4.0" fill="#16a34a" opacity="0.85"/>
<circle cx="420.7" cy="443.0" r="4.0" fill="#16a34a" opacity="0.85"/>
<circle cx="426.0" cy="441.8" r="4.0" fill="#16a34a" opacity="0.85"/>
<circle cx="431.3" cy="440.7" r="4.0" fill="#16a34a" opacity="0.85"/>
<circle cx="436.6" cy="439.5" r="4.0" fill="#16a34a" opacity="0.85"/>
<circle cx="442.0" cy="437.2" r="4.0" fill="#16a34a" opacity="0.85"/>
<circle cx="447.3" cy="436.1" r="4.0" fill="#16a34a" opacity="0.85"/>
<circle cx="452.6" cy="432.7" r="4.0" fill="#16a34a" opacity="0.85"/>
<circle cx="457.9" cy="432.7" r="4.0" fill="#16a34a" opacity="0.85"/>
<circle cx="463.2" cy="431.5" r="4.0" fill="#16a34a" opacity="0.85"/>
<circle cx="468.5" cy="431.5" r="4.0" fill="#16a34a" opacity="0.85"/>
<circle cx="473.9" cy="431.5" r="4.0" fill="#16a34a" opacity="0.85"/>
<circle cx="479.2" cy="428.1" r="4.0" fill="#16a34a" opacity="0.85"/>
<circle cx="484.5" cy="428.1" r="4.0" fill="#16a34a" opacity="0.85"/>
<circle cx="489.8" cy="427.0" r="4.0" fill="#16a34a" opacity="0.85"/>
<circle cx="495.1" cy="424.7" r="4.0" fill="#16a34a" opacity="0.85"/>
<circle cx="500.5" cy="415.5" r="4.0" fill="#16a34a" opacity="0.85"/>
<circle cx="505.8" cy="396.1" r="4.0" fill="#16a34a" opacity="0.85"/>
<circle cx="511.1" cy="371.0" r="4.0" fill="#16a34a" opacity="0.85"/>
<circle cx="516.4" cy="365.3" r="4.0" fill="#16a34a" opacity="0.85"/>
<circle cx="521.7" cy="364.1" r="4.0" fill="#16a34a" opacity="0.85"/>
<circle cx="527.0" cy="361.9" r="4.0" fill="#16a34a" opacity="0.85"/>
<circle cx="532.4" cy="361.9" r="3.5" fill="#f97316" opacity="0.75"/>
<circle cx="537.7" cy="359.6" r="4.0" fill="#16a34a" opacity="0.85"/>
<circle cx="543.0" cy="353.9" r="4.0" fill="#16a34a" opacity="0.85"/>
<circle cx="548.3" cy="353.9" r="4.0" fill="#16a34a" opacity="0.85"/>
<circle cx="553.6" cy="350.4" r="4.0" fill="#16a34a" opacity="0.85"/>
<circle cx="559.0" cy="350.4" r="4.0" fill="#16a34a" opacity="0.85"/>
<circle cx="564.3" cy="345.9" r="4.0" fill="#16a34a" opacity="0.85"/>
<circle cx="569.6" cy="344.7" r="4.0" fill="#16a34a" opacity="0.85"/>
<circle cx="574.9" cy="343.6" r="4.0" fill="#16a34a" opacity="0.85"/>
<circle cx="580.2" cy="336.7" r="4.0" fill="#16a34a" opacity="0.85"/>
<circle cx="585.5" cy="328.7" r="4.0" fill="#16a34a" opacity="0.85"/>
<circle cx="590.9" cy="328.7" r="4.0" fill="#16a34a" opacity="0.85"/>
<circle cx="596.2" cy="328.7" r="4.0" fill="#16a34a" opacity="0.85"/>
<circle cx="601.5" cy="328.7" r="3.5" fill="#f97316" opacity="0.75"/>
<circle cx="606.8" cy="326.4" r="4.0" fill="#16a34a" opacity="0.85"/>
<circle cx="612.1" cy="326.4" r="4.0" fill="#16a34a" opacity="0.85"/>
<circle cx="617.5" cy="325.3" r="4.0" fill="#16a34a" opacity="0.85"/>
<circle cx="622.8" cy="325.3" r="4.0" fill="#16a34a" opacity="0.85"/>
<circle cx="628.1" cy="324.2" r="4.0" fill="#16a34a" opacity="0.85"/>
<circle cx="633.4" cy="321.9" r="4.0" fill="#16a34a" opacity="0.85"/>
<circle cx="638.7" cy="321.9" r="4.0" fill="#16a34a" opacity="0.85"/>
<circle cx="644.0" cy="320.7" r="4.0" fill="#16a34a" opacity="0.85"/>
<circle cx="649.4" cy="320.7" r="4.0" fill="#16a34a" opacity="0.85"/>
<circle cx="654.7" cy="318.4" r="4.0" fill="#16a34a" opacity="0.85"/>
<circle cx="660.0" cy="318.4" r="4.0" fill="#16a34a" opacity="0.85"/>
<circle cx="665.3" cy="317.3" r="4.0" fill="#16a34a" opacity="0.85"/>
<circle cx="670.6" cy="317.3" r="4.0" fill="#16a34a" opacity="0.85"/>
<circle cx="676.0" cy="316.2" r="4.0" fill="#16a34a" opacity="0.85"/>
<circle cx="681.3" cy="316.2" r="4.0" fill="#16a34a" opacity="0.85"/>
<circle cx="686.6" cy="315.0" r="4.0" fill="#16a34a" opacity="0.85"/>
<circle cx="691.9" cy="315.0" r="4.0" fill="#16a34a" opacity="0.85"/>
<circle cx="697.2" cy="315.0" r="3.5" fill="#f97316" opacity="0.75"/>
<circle cx="702.5" cy="313.9" r="3.5" fill="#f97316" opacity="0.75"/>
<circle cx="707.9" cy="313.9" r="4.0" fill="#16a34a" opacity="0.85"/>
<circle cx="713.2" cy="312.7" r="4.0" fill="#16a34a" opacity="0.85"/>
<circle cx="718.5" cy="312.7" r="4.0" fill="#16a34a" opacity="0.85"/>
<circle cx="723.8" cy="312.7" r="4.0" fill="#16a34a" opacity="0.85"/>
<circle cx="729.1" cy="312.7" r="4.0" fill="#16a34a" opacity="0.85"/>
<circle cx="734.5" cy="312.7" r="3.5" fill="#f97316" opacity="0.75"/>
<circle cx="739.8" cy="311.6" r="4.0" fill="#16a34a" opacity="0.85"/>
<circle cx="745.1" cy="311.6" r="4.0" fill="#16a34a" opacity="0.85"/>
<circle cx="750.4" cy="309.3" r="4.0" fill="#16a34a" opacity="0.85"/>
<circle cx="755.7" cy="309.3" r="4.0" fill="#16a34a" opacity="0.85"/>
<circle cx="761.0" cy="308.2" r="4.0" fill="#16a34a" opacity="0.85"/>
<circle cx="766.4" cy="308.2" r="4.0" fill="#16a34a" opacity="0.85"/>
<circle cx="771.7" cy="307.0" r="4.0" fill="#16a34a" opacity="0.85"/>
<circle cx="777.0" cy="307.0" r="3.5" fill="#f97316" opacity="0.75"/>
<circle cx="782.3" cy="307.0" r="4.0" fill="#16a34a" opacity="0.85"/>
<circle cx="787.6" cy="305.9" r="4.0" fill="#16a34a" opacity="0.85"/>
<circle cx="793.0" cy="304.7" r="4.0" fill="#16a34a" opacity="0.85"/>
<circle cx="798.3" cy="304.7" r="4.0" fill="#16a34a" opacity="0.85"/>
<circle cx="803.6" cy="303.6" r="4.0" fill="#16a34a" opacity="0.85"/>
<circle cx="808.9" cy="303.6" r="4.0" fill="#16a34a" opacity="0.85"/>
<circle cx="814.2" cy="302.5" r="4.0" fill="#16a34a" opacity="0.85"/>
<circle cx="819.5" cy="302.5" r="4.0" fill="#16a34a" opacity="0.85"/>
<circle cx="824.9" cy="302.5" r="3.5" fill="#f97316" opacity="0.75"/>
<circle cx="830.2" cy="302.5" r="4.0" fill="#16a34a" opacity="0.85"/>
<circle cx="835.5" cy="302.5" r="3.5" fill="#f97316" opacity="0.75"/>
<circle cx="840.8" cy="301.3" r="4.0" fill="#16a34a" opacity="0.85"/>
<circle cx="846.1" cy="301.3" r="4.0" fill="#16a34a" opacity="0.85"/>
<circle cx="851.5" cy="300.2" r="4.0" fill="#16a34a" opacity="0.85"/>
<circle cx="856.8" cy="300.2" r="4.0" fill="#16a34a" opacity="0.85"/>
<circle cx="862.1" cy="299.0" r="4.0" fill="#16a34a" opacity="0.85"/>
<circle cx="867.4" cy="299.0" r="4.0" fill="#16a34a" opacity="0.85"/>
<circle cx="872.7" cy="299.0" r="3.5" fill="#f97316" opacity="0.75"/>
<circle cx="878.0" cy="299.0" r="4.0" fill="#16a34a" opacity="0.85"/>
<circle cx="883.4" cy="299.0" r="4.0" fill="#16a34a" opacity="0.85"/>
<circle cx="888.7" cy="157.4" r="4.0" fill="#16a34a" opacity="0.85"/>
<circle cx="894.0" cy="157.4" r="4.0" fill="#16a34a" opacity="0.85"/>
<circle cx="899.3" cy="154.0" r="4.0" fill="#16a34a" opacity="0.85"/>
<circle cx="904.6" cy="154.0" r="4.0" fill="#16a34a" opacity="0.85"/>
<circle cx="910.0" cy="152.8" r="4.0" fill="#16a34a" opacity="0.85"/>
<circle cx="915.3" cy="151.7" r="4.0" fill="#16a34a" opacity="0.85"/>
<circle cx="920.6" cy="150.5" r="4.0" fill="#16a34a" opacity="0.85"/>
<circle cx="925.9" cy="148.2" r="4.0" fill="#16a34a" opacity="0.85"/>
<circle cx="931.2" cy="141.4" r="4.0" fill="#16a34a" opacity="0.85"/>
<circle cx="936.5" cy="134.5" r="4.0" fill="#16a34a" opacity="0.85"/>
<circle cx="941.9" cy="132.2" r="4.0" fill="#16a34a" opacity="0.85"/>
<circle cx="947.2" cy="132.2" r="4.0" fill="#16a34a" opacity="0.85"/>
<circle cx="952.5" cy="132.2" r="4.0" fill="#eab308" opacity="0.85"/>
<circle cx="957.8" cy="132.2" r="3.5" fill="#f97316" opacity="0.75"/>
<circle cx="963.1" cy="132.2" r="4.0" fill="#16a34a" opacity="0.85"/>
<circle cx="968.5" cy="132.2" r="4.0" fill="#16a34a" opacity="0.85"/>
<circle cx="973.8" cy="132.2" r="3.5" fill="#f97316" opacity="0.75"/>
<circle cx="979.1" cy="132.2" r="4.0" fill="#eab308" opacity="0.85"/>
<circle cx="984.4" cy="132.2" r="4.0" fill="#16a34a" opacity="0.85"/>
<circle cx="989.7" cy="131.1" r="4.0" fill="#16a34a" opacity="0.85"/>
<circle cx="995.0" cy="131.1" r="4.0" fill="#eab308" opacity="0.85"/>
<circle cx="1000.4" cy="131.1" r="4.0" fill="#16a34a" opacity="0.85"/>
<circle cx="1005.7" cy="131.1" r="3.5" fill="#f97316" opacity="0.75"/>
<circle cx="1011.0" cy="131.1" r="3.5" fill="#f97316" opacity="0.75"/>
<circle cx="1016.3" cy="130.0" r="4.0" fill="#16a34a" opacity="0.85"/>
<circle cx="1021.6" cy="130.0" r="4.0" fill="#16a34a" opacity="0.85"/>
<circle cx="1027.0" cy="127.7" r="4.0" fill="#eab308" opacity="0.85"/>
<circle cx="1032.3" cy="127.7" r="4.0" fill="#16a34a" opacity="0.85"/>
<circle cx="1037.6" cy="125.4" r="4.0" fill="#16a34a" opacity="0.85"/>
<circle cx="1042.9" cy="125.4" r="4.0" fill="#16a34a" opacity="0.85"/>
<circle cx="1048.2" cy="124.3" r="4.0" fill="#16a34a" opacity="0.85"/>
<circle cx="1053.5" cy="124.3" r="4.0" fill="#16a34a" opacity="0.85"/>
<circle cx="1058.9" cy="124.3" r="4.0" fill="#16a34a" opacity="0.85"/>
<circle cx="1064.2" cy="124.3" r="4.0" fill="#16a34a" opacity="0.85"/>
<circle cx="1069.5" cy="124.3" r="3.5" fill="#f97316" opacity="0.75"/>
<circle cx="1074.8" cy="118.5" r="4.0" fill="#16a34a" opacity="0.85"/>
<circle cx="1080.1" cy="118.5" r="3.5" fill="#f97316" opacity="0.75"/>
<circle cx="1085.5" cy="116.3" r="4.0" fill="#16a34a" opacity="0.85"/>
<circle cx="1090.8" cy="115.1" r="4.0" fill="#16a34a" opacity="0.85"/>
<circle cx="1096.1" cy="112.8" r="4.0" fill="#16a34a" opacity="0.85"/>
<circle cx="1101.4" cy="111.7" r="4.0" fill="#16a34a" opacity="0.85"/>
<circle cx="1106.7" cy="107.1" r="4.0" fill="#16a34a" opacity="0.85"/>
<circle cx="1112.0" cy="107.1" r="4.0" fill="#16a34a" opacity="0.85"/>
<circle cx="1117.4" cy="106.0" r="4.0" fill="#16a34a" opacity="0.85"/>
<circle cx="1122.7" cy="104.8" r="4.0" fill="#16a34a" opacity="0.85"/>
<circle cx="1128.0" cy="104.8" r="4.0" fill="#16a34a" opacity="0.85"/>
<circle cx="75.0" cy="560.4" r="2.2" fill="#9b6fd0" opacity="0.45"/>
<circle cx="80.3" cy="464.1" r="2.2" fill="#9b6fd0" opacity="0.45"/>
<circle cx="85.6" cy="580.2" r="2.2" fill="#9b6fd0" opacity="0.45"/>
<circle cx="91.0" cy="558.0" r="2.2" fill="#9b6fd0" opacity="0.45"/>
<circle cx="96.3" cy="577.0" r="2.2" fill="#9b6fd0" opacity="0.45"/>
<circle cx="101.6" cy="479.5" r="2.2" fill="#9b6fd0" opacity="0.45"/>
<circle cx="106.9" cy="506.5" r="2.2" fill="#9b6fd0" opacity="0.45"/>
<circle cx="112.2" cy="428.8" r="2.2" fill="#9b6fd0" opacity="0.45"/>
<circle cx="117.5" cy="447.6" r="2.2" fill="#9b6fd0" opacity="0.45"/>
<circle cx="122.9" cy="503.7" r="2.2" fill="#9b6fd0" opacity="0.45"/>
<circle cx="128.2" cy="495.3" r="2.2" fill="#9b6fd0" opacity="0.45"/>
<circle cx="133.5" cy="487.7" r="2.2" fill="#9b6fd0" opacity="0.45"/>
<circle cx="138.8" cy="515.6" r="2.2" fill="#9b6fd0" opacity="0.45"/>
<circle cx="144.1" cy="500.5" r="2.2" fill="#9b6fd0" opacity="0.45"/>
<circle cx="154.8" cy="391.1" r="2.2" fill="#9b6fd0" opacity="0.45"/>
<circle cx="160.1" cy="484.9" r="2.2" fill="#9b6fd0" opacity="0.45"/>
<circle cx="165.4" cy="363.4" r="2.2" fill="#9b6fd0" opacity="0.45"/>
<circle cx="170.7" cy="373.6" r="2.2" fill="#9b6fd0" opacity="0.45"/>
<circle cx="176.0" cy="396.8" r="2.2" fill="#9b6fd0" opacity="0.45"/>
<circle cx="181.4" cy="305.0" r="2.2" fill="#9b6fd0" opacity="0.45"/>
<circle cx="186.7" cy="255.8" r="2.2" fill="#9b6fd0" opacity="0.45"/>
<circle cx="192.0" cy="272.1" r="2.2" fill="#9b6fd0" opacity="0.45"/>
<circle cx="197.3" cy="310.0" r="2.2" fill="#9b6fd0" opacity="0.45"/>
<circle cx="202.6" cy="257.0" r="2.2" fill="#9b6fd0" opacity="0.45"/>
<circle cx="208.0" cy="198.3" r="2.2" fill="#9b6fd0" opacity="0.45"/>
<circle cx="213.3" cy="121.6" r="2.2" fill="#9b6fd0" opacity="0.45"/>
<circle cx="218.6" cy="572.6" r="2.2" fill="#9b6fd0" opacity="0.45"/>
<circle cx="223.9" cy="572.3" r="2.2" fill="#9b6fd0" opacity="0.45"/>
<circle cx="229.2" cy="409.4" r="2.2" fill="#9b6fd0" opacity="0.45"/>
<circle cx="234.5" cy="489.9" r="2.2" fill="#9b6fd0" opacity="0.45"/>
<circle cx="239.9" cy="539.4" r="2.2" fill="#9b6fd0" opacity="0.45"/>
<circle cx="245.2" cy="554.7" r="2.2" fill="#9b6fd0" opacity="0.45"/>
<circle cx="250.5" cy="594.6" r="2.2" fill="#9b6fd0" opacity="0.45"/>
<circle cx="255.8" cy="579.0" r="2.2" fill="#9b6fd0" opacity="0.45"/>
<circle cx="261.1" cy="603.7" r="2.2" fill="#9b6fd0" opacity="0.45"/>
<circle cx="266.5" cy="604.5" r="2.2" fill="#9b6fd0" opacity="0.45"/>
<circle cx="271.8" cy="605.5" r="2.2" fill="#9b6fd0" opacity="0.45"/>
<circle cx="277.1" cy="599.8" r="2.2" fill="#9b6fd0" opacity="0.45"/>
<circle cx="282.4" cy="539.9" r="2.2" fill="#9b6fd0" opacity="0.45"/>
<circle cx="287.7" cy="546.8" r="2.2" fill="#9b6fd0" opacity="0.45"/>
<circle cx="293.0" cy="533.0" r="2.2" fill="#9b6fd0" opacity="0.45"/>
<circle cx="298.4" cy="522.6" r="2.2" fill="#9b6fd0" opacity="0.45"/>
<circle cx="303.7" cy="526.8" r="2.2" fill="#9b6fd0" opacity="0.45"/>
<circle cx="309.0" cy="512.7" r="2.2" fill="#9b6fd0" opacity="0.45"/>
<circle cx="314.3" cy="524.8" r="2.2" fill="#9b6fd0" opacity="0.45"/>
<circle cx="319.6" cy="534.9" r="2.2" fill="#9b6fd0" opacity="0.45"/>
<circle cx="325.0" cy="529.0" r="2.2" fill="#9b6fd0" opacity="0.45"/>
<circle cx="330.3" cy="528.0" r="2.2" fill="#9b6fd0" opacity="0.45"/>
<circle cx="335.6" cy="535.7" r="2.2" fill="#9b6fd0" opacity="0.45"/>
<circle cx="340.9" cy="516.6" r="2.2" fill="#9b6fd0" opacity="0.45"/>
<circle cx="346.2" cy="512.2" r="2.2" fill="#9b6fd0" opacity="0.45"/>
<circle cx="351.5" cy="518.1" r="2.2" fill="#9b6fd0" opacity="0.45"/>
<circle cx="356.9" cy="510.2" r="2.2" fill="#9b6fd0" opacity="0.45"/>
<circle cx="362.2" cy="513.2" r="2.2" fill="#9b6fd0" opacity="0.45"/>
<circle cx="367.5" cy="527.5" r="2.2" fill="#9b6fd0" opacity="0.45"/>
<circle cx="372.8" cy="533.0" r="2.2" fill="#9b6fd0" opacity="0.45"/>
<circle cx="383.5" cy="511.7" r="2.2" fill="#9b6fd0" opacity="0.45"/>
<circle cx="388.8" cy="527.8" r="2.2" fill="#9b6fd0" opacity="0.45"/>
<circle cx="394.1" cy="515.1" r="2.2" fill="#9b6fd0" opacity="0.45"/>
<circle cx="399.4" cy="528.5" r="2.2" fill="#9b6fd0" opacity="0.45"/>
<circle cx="404.7" cy="569.6" r="2.2" fill="#9b6fd0" opacity="0.45"/>
<circle cx="410.0" cy="562.2" r="2.2" fill="#9b6fd0" opacity="0.45"/>
<circle cx="415.4" cy="568.1" r="2.2" fill="#9b6fd0" opacity="0.45"/>
<circle cx="420.7" cy="574.3" r="2.2" fill="#9b6fd0" opacity="0.45"/>
<circle cx="426.0" cy="575.0" r="2.2" fill="#9b6fd0" opacity="0.45"/>
<circle cx="431.3" cy="587.9" r="2.2" fill="#9b6fd0" opacity="0.45"/>
<circle cx="436.6" cy="575.0" r="2.2" fill="#9b6fd0" opacity="0.45"/>
<circle cx="442.0" cy="567.6" r="2.2" fill="#9b6fd0" opacity="0.45"/>
<circle cx="447.3" cy="586.2" r="2.2" fill="#9b6fd0" opacity="0.45"/>
<circle cx="452.6" cy="565.4" r="2.2" fill="#9b6fd0" opacity="0.45"/>
<circle cx="457.9" cy="574.8" r="2.2" fill="#9b6fd0" opacity="0.45"/>
<circle cx="463.2" cy="573.5" r="2.2" fill="#9b6fd0" opacity="0.45"/>
<circle cx="468.5" cy="572.1" r="2.2" fill="#9b6fd0" opacity="0.45"/>
<circle cx="473.9" cy="573.8" r="2.2" fill="#9b6fd0" opacity="0.45"/>
<circle cx="479.2" cy="574.0" r="2.2" fill="#9b6fd0" opacity="0.45"/>
<circle cx="484.5" cy="586.7" r="2.2" fill="#9b6fd0" opacity="0.45"/>
<circle cx="489.8" cy="568.6" r="2.2" fill="#9b6fd0" opacity="0.45"/>
<circle cx="495.1" cy="567.6" r="2.2" fill="#9b6fd0" opacity="0.45"/>
<circle cx="500.5" cy="569.3" r="2.2" fill="#9b6fd0" opacity="0.45"/>
<circle cx="505.8" cy="582.7" r="2.2" fill="#9b6fd0" opacity="0.45"/>
<circle cx="511.1" cy="590.4" r="2.2" fill="#9b6fd0" opacity="0.45"/>
<circle cx="516.4" cy="566.6" r="2.2" fill="#9b6fd0" opacity="0.45"/>
<circle cx="521.7" cy="568.8" r="2.2" fill="#9b6fd0" opacity="0.45"/>
<circle cx="527.0" cy="579.5" r="2.2" fill="#9b6fd0" opacity="0.45"/>
<circle cx="537.7" cy="577.8" r="2.2" fill="#9b6fd0" opacity="0.45"/>
<circle cx="543.0" cy="566.6" r="2.2" fill="#9b6fd0" opacity="0.45"/>
<circle cx="548.3" cy="564.6" r="2.2" fill="#9b6fd0" opacity="0.45"/>
<circle cx="553.6" cy="562.7" r="2.2" fill="#9b6fd0" opacity="0.45"/>
<circle cx="559.0" cy="561.2" r="2.2" fill="#9b6fd0" opacity="0.45"/>
<circle cx="564.3" cy="560.7" r="2.2" fill="#9b6fd0" opacity="0.45"/>
<circle cx="569.6" cy="578.0" r="2.2" fill="#9b6fd0" opacity="0.45"/>
<circle cx="574.9" cy="561.9" r="2.2" fill="#9b6fd0" opacity="0.45"/>
<circle cx="580.2" cy="574.0" r="2.2" fill="#9b6fd0" opacity="0.45"/>
<circle cx="585.5" cy="558.9" r="2.2" fill="#9b6fd0" opacity="0.45"/>
<circle cx="590.9" cy="557.0" r="2.2" fill="#9b6fd0" opacity="0.45"/>
<circle cx="596.2" cy="572.8" r="2.2" fill="#9b6fd0" opacity="0.45"/>
<circle cx="606.8" cy="557.0" r="2.2" fill="#9b6fd0" opacity="0.45"/>
<circle cx="612.1" cy="559.4" r="2.2" fill="#9b6fd0" opacity="0.45"/>
<circle cx="617.5" cy="560.7" r="2.2" fill="#9b6fd0" opacity="0.45"/>
<circle cx="622.8" cy="550.0" r="2.2" fill="#9b6fd0" opacity="0.45"/>
<circle cx="628.1" cy="570.3" r="2.2" fill="#9b6fd0" opacity="0.45"/>
<circle cx="633.4" cy="572.6" r="2.2" fill="#9b6fd0" opacity="0.45"/>
<circle cx="638.7" cy="572.8" r="2.2" fill="#9b6fd0" opacity="0.45"/>
<circle cx="644.0" cy="558.0" r="2.2" fill="#9b6fd0" opacity="0.45"/>
<circle cx="649.4" cy="566.1" r="2.2" fill="#9b6fd0" opacity="0.45"/>
<circle cx="654.7" cy="555.5" r="2.2" fill="#9b6fd0" opacity="0.45"/>
<circle cx="660.0" cy="568.8" r="2.2" fill="#9b6fd0" opacity="0.45"/>
<circle cx="665.3" cy="554.7" r="2.2" fill="#9b6fd0" opacity="0.45"/>
<circle cx="670.6" cy="552.8" r="2.2" fill="#9b6fd0" opacity="0.45"/>
<circle cx="676.0" cy="551.5" r="2.2" fill="#9b6fd0" opacity="0.45"/>
<circle cx="681.3" cy="567.9" r="2.2" fill="#9b6fd0" opacity="0.45"/>
<circle cx="686.6" cy="550.0" r="2.2" fill="#9b6fd0" opacity="0.45"/>
<circle cx="691.9" cy="566.1" r="2.2" fill="#9b6fd0" opacity="0.45"/>
<circle cx="707.9" cy="562.9" r="2.2" fill="#9b6fd0" opacity="0.45"/>
<circle cx="713.2" cy="546.3" r="2.2" fill="#9b6fd0" opacity="0.45"/>
<circle cx="718.5" cy="565.6" r="2.2" fill="#9b6fd0" opacity="0.45"/>
<circle cx="723.8" cy="547.6" r="2.2" fill="#9b6fd0" opacity="0.45"/>
<circle cx="729.1" cy="548.8" r="2.2" fill="#9b6fd0" opacity="0.45"/>
<circle cx="739.8" cy="549.3" r="2.2" fill="#9b6fd0" opacity="0.45"/>
<circle cx="745.1" cy="547.8" r="2.2" fill="#9b6fd0" opacity="0.45"/>
<circle cx="750.4" cy="540.1" r="2.2" fill="#9b6fd0" opacity="0.45"/>
<circle cx="755.7" cy="549.0" r="2.2" fill="#9b6fd0" opacity="0.45"/>
<circle cx="761.0" cy="559.7" r="2.2" fill="#9b6fd0" opacity="0.45"/>
<circle cx="766.4" cy="547.6" r="2.2" fill="#9b6fd0" opacity="0.45"/>
<circle cx="771.7" cy="545.6" r="2.2" fill="#9b6fd0" opacity="0.45"/>
<circle cx="782.3" cy="563.6" r="2.2" fill="#9b6fd0" opacity="0.45"/>
<circle cx="787.6" cy="544.8" r="2.2" fill="#9b6fd0" opacity="0.45"/>
<circle cx="793.0" cy="534.2" r="2.2" fill="#9b6fd0" opacity="0.45"/>
<circle cx="798.3" cy="540.1" r="2.2" fill="#9b6fd0" opacity="0.45"/>
<circle cx="803.6" cy="542.1" r="2.2" fill="#9b6fd0" opacity="0.45"/>
<circle cx="808.9" cy="542.6" r="2.2" fill="#9b6fd0" opacity="0.45"/>
<circle cx="814.2" cy="543.8" r="2.2" fill="#9b6fd0" opacity="0.45"/>
<circle cx="819.5" cy="562.4" r="2.2" fill="#9b6fd0" opacity="0.45"/>
<circle cx="830.2" cy="561.4" r="2.2" fill="#9b6fd0" opacity="0.45"/>
<circle cx="840.8" cy="562.2" r="2.2" fill="#9b6fd0" opacity="0.45"/>
<circle cx="846.1" cy="560.9" r="2.2" fill="#9b6fd0" opacity="0.45"/>
<circle cx="851.5" cy="540.6" r="2.2" fill="#9b6fd0" opacity="0.45"/>
<circle cx="856.8" cy="541.1" r="2.2" fill="#9b6fd0" opacity="0.45"/>
<circle cx="862.1" cy="561.2" r="2.2" fill="#9b6fd0" opacity="0.45"/>
<circle cx="867.4" cy="542.9" r="2.2" fill="#9b6fd0" opacity="0.45"/>
<circle cx="878.0" cy="541.9" r="2.2" fill="#9b6fd0" opacity="0.45"/>
<circle cx="883.4" cy="553.7" r="2.2" fill="#9b6fd0" opacity="0.45"/>
<circle cx="888.7" cy="487.2" r="2.2" fill="#9b6fd0" opacity="0.45"/>
<circle cx="894.0" cy="522.8" r="2.2" fill="#9b6fd0" opacity="0.45"/>
<circle cx="899.3" cy="405.5" r="2.2" fill="#9b6fd0" opacity="0.45"/>
<circle cx="904.6" cy="497.8" r="2.2" fill="#9b6fd0" opacity="0.45"/>
<circle cx="910.0" cy="514.9" r="2.2" fill="#9b6fd0" opacity="0.45"/>
<circle cx="915.3" cy="474.0" r="2.2" fill="#9b6fd0" opacity="0.45"/>
<circle cx="920.6" cy="486.7" r="2.2" fill="#9b6fd0" opacity="0.45"/>
<circle cx="925.9" cy="508.7" r="2.2" fill="#9b6fd0" opacity="0.45"/>
<circle cx="931.2" cy="483.7" r="2.2" fill="#9b6fd0" opacity="0.45"/>
<circle cx="936.5" cy="493.8" r="2.2" fill="#9b6fd0" opacity="0.45"/>
<circle cx="941.9" cy="487.7" r="2.2" fill="#9b6fd0" opacity="0.45"/>
<circle cx="947.2" cy="454.5" r="2.2" fill="#9b6fd0" opacity="0.45"/>
<circle cx="963.1" cy="501.3" r="2.2" fill="#9b6fd0" opacity="0.45"/>
<circle cx="968.5" cy="481.2" r="2.2" fill="#9b6fd0" opacity="0.45"/>
<circle cx="984.4" cy="510.9" r="2.2" fill="#9b6fd0" opacity="0.45"/>
<circle cx="989.7" cy="511.9" r="2.2" fill="#9b6fd0" opacity="0.45"/>
<circle cx="1000.4" cy="508.7" r="2.2" fill="#9b6fd0" opacity="0.45"/>
<circle cx="1016.3" cy="478.5" r="2.2" fill="#9b6fd0" opacity="0.45"/>
<circle cx="1021.6" cy="487.4" r="2.2" fill="#9b6fd0" opacity="0.45"/>
<circle cx="1032.3" cy="478.8" r="2.2" fill="#9b6fd0" opacity="0.45"/>
<circle cx="1037.6" cy="486.7" r="2.2" fill="#9b6fd0" opacity="0.45"/>
<circle cx="1042.9" cy="509.7" r="2.2" fill="#9b6fd0" opacity="0.45"/>
<circle cx="1048.2" cy="485.7" r="2.2" fill="#9b6fd0" opacity="0.45"/>
<circle cx="1053.5" cy="487.9" r="2.2" fill="#9b6fd0" opacity="0.45"/>
<circle cx="1058.9" cy="510.7" r="2.2" fill="#9b6fd0" opacity="0.45"/>
<circle cx="1064.2" cy="473.1" r="2.2" fill="#9b6fd0" opacity="0.45"/>
<circle cx="1074.8" cy="465.4" r="2.2" fill="#9b6fd0" opacity="0.45"/>
<circle cx="1085.5" cy="427.8" r="2.2" fill="#9b6fd0" opacity="0.45"/>
<circle cx="1090.8" cy="535.7" r="2.2" fill="#9b6fd0" opacity="0.45"/>
<circle cx="1096.1" cy="563.9" r="2.2" fill="#9b6fd0" opacity="0.45"/>
<circle cx="1101.4" cy="563.4" r="2.2" fill="#9b6fd0" opacity="0.45"/>
<circle cx="1106.7" cy="502.5" r="2.2" fill="#9b6fd0" opacity="0.45"/>
<circle cx="1112.0" cy="543.1" r="2.2" fill="#9b6fd0" opacity="0.45"/>
<circle cx="1117.4" cy="556.0" r="2.2" fill="#9b6fd0" opacity="0.45"/>
<circle cx="1122.7" cy="563.6" r="2.2" fill="#9b6fd0" opacity="0.45"/>
<circle cx="1128.0" cy="563.6" r="2.2" fill="#9b6fd0" opacity="0.45"/>
<line x1="282.4" y1="580.3" x2="282.4" y2="608.3" stroke="#6d28d9" stroke-width="1" stroke-dasharray="2,2"/>
<rect x="256.4" y="609.3" width="58" height="30" rx="4" fill="#f3eefb" stroke="#9b6fd0" stroke-width="0.8"/>
<text x="282.4" y="623.3" text-anchor="middle" font-size="10" fill="#6d28d9" font-weight="bold">baseline</text>
<text x="282.4" y="635.3" text-anchor="middle" font-size="10" fill="#6d28d9">56.8%</text>
<line x1="888.7" y1="151.4" x2="888.7" y2="68.0" stroke="#475569" stroke-width="1" stroke-dasharray="3,2"/>
<rect x="846.7" y="60.0" width="90" height="26" rx="4" fill="white" stroke="#94a3b8" stroke-width="0.8" opacity="0.92"/>
<text x="891.7" y="71.0" text-anchor="middle" font-size="10" fill="#334155" font-weight="bold">+631 covered</text>
<text x="891.7" y="82.0" text-anchor="middle" font-size="10" fill="#475569">TUI test harness</text>
<circle cx="1128.0" cy="104.8" r="8" fill="none" stroke="#16a34a" stroke-width="2.5"/>
<circle cx="1128.0" cy="104.8" r="4" fill="#16a34a"/>
<text x="1119.0" y="90.8" text-anchor="end" font-size="11.5" fill="#16a34a" font-weight="bold">97.9%</text>
<line x1="75.0" y1="652" x2="75.0" y2="657" stroke="#888" stroke-width="1"/>
<text x="75.0" y="670" text-anchor="middle" font-size="11" fill="#555">1</text>
<line x1="202.6" y1="652" x2="202.6" y2="657" stroke="#888" stroke-width="1"/>
<text x="202.6" y="670" text-anchor="middle" font-size="11" fill="#555">25</text>
<line x1="335.6" y1="652" x2="335.6" y2="657" stroke="#888" stroke-width="1"/>
<text x="335.6" y="670" text-anchor="middle" font-size="11" fill="#555">50</text>
<line x1="468.5" y1="652" x2="468.5" y2="657" stroke="#888" stroke-width="1"/>
<text x="468.5" y="670" text-anchor="middle" font-size="11" fill="#555">75</text>
<line x1="601.5" y1="652" x2="601.5" y2="657" stroke="#888" stroke-width="1"/>
<text x="601.5" y="670" text-anchor="middle" font-size="11" fill="#555">100</text>
<line x1="734.5" y1="652" x2="734.5" y2="657" stroke="#888" stroke-width="1"/>
<text x="734.5" y="670" text-anchor="middle" font-size="11" fill="#555">125</text>
<line x1="867.4" y1="652" x2="867.4" y2="657" stroke="#888" stroke-width="1"/>
<text x="867.4" y="670" text-anchor="middle" font-size="11" fill="#555">150</text>
<line x1="1000.4" y1="652" x2="1000.4" y2="657" stroke="#888" stroke-width="1"/>
<text x="1000.4" y="670" text-anchor="middle" font-size="11" fill="#555">175</text>
<line x1="1128.0" y1="652" x2="1128.0" y2="657" stroke="#888" stroke-width="1"/>
<text x="1128.0" y="670" text-anchor="middle" font-size="11" fill="#555">199</text>
<text x="601" y="710" text-anchor="middle" font-size="12" fill="#444">experiment #</text>
<text x="16" y="355" text-anchor="middle" font-size="12" fill="#16a34a" font-weight="600" transform="rotate(-90 16 355)">coverage %</text>
<text x="1184" y="355" text-anchor="middle" font-size="12" fill="#9b6fd0" font-weight="600" transform="rotate(90 1184 355)">efficiency  (lower = better)</text>
<rect x="292.4" y="511.8" width="238" height="96" rx="5" fill="white" opacity="0.90" stroke="#c4b5fd" stroke-width="1.2"/>
<text x="302.4" y="527.8" font-size="11" fill="#333"><tspan font-weight="bold" fill="#6d28d9">start</tspan>  56.8%  /  1,878 miss</text>
<text x="302.4" y="547.8" font-size="11" fill="#333"><tspan font-weight="bold" fill="#6d28d9">finish</tspan>  97.9%  /  17 miss</text>
<text x="302.4" y="567.8" font-size="11" fill="#333"><tspan font-weight="bold" fill="#6d28d9">efficiency</tspan>  4.53 → 3.57  (−21%)</text>
<text x="302.4" y="587.8" font-size="11" fill="#333"><tspan font-weight="bold" fill="#6d28d9">experiments</tspan>  199 total  /  178 kept</text>
<rect x="888.0" y="92.0" width="222" height="109" rx="5" fill="white" opacity="0.92" stroke="#ddd" stroke-width="1"/>
<line x1="898.0" y1="102.0" x2="922.0" y2="102.0" stroke="#16a34a" stroke-width="2.5" />
<text x="929.0" y="106.0" font-size="11" fill="#333">coverage %  (kept)</text>
<line x1="898.0" y1="121.0" x2="922.0" y2="121.0" stroke="#9b6fd0" stroke-width="1.5" stroke-dasharray="6,3"/>
<text x="929.0" y="125.0" font-size="11" fill="#333">efficiency  (kept)</text>
<circle cx="910.0" cy="140.0" r="4.0" fill="#16a34a" opacity="0.85"/>
<text x="929.0" y="144.0" font-size="11" fill="#333">kept</text>
<circle cx="910.0" cy="159.0" r="3.5" fill="#f97316" opacity="0.85"/>
<text x="929.0" y="163.0" font-size="11" fill="#333">discarded / noise</text>
<circle cx="910.0" cy="178.0" r="4.0" fill="#eab308" opacity="0.85"/>
<text x="929.0" y="182.0" font-size="11" fill="#333">checks failed</text>
</svg>